<svg xmlns="http://www.w3.org/2000/svg" xmlns:xlink="http://www.w3.org/1999/xlink"><defs><filter id="filter0_d" x="0" y="0" width="113" height="133" filterUnits="userSpaceOnUse" color-interpolation-filters="sRGB"><feFlood flood-opacity="0" result="BackgroundImageFix"/><feColorMatrix in="SourceAlpha" values="0 0 0 0 0 0 0 0 0 0 0 0 0 0 0 0 0 0 127 0"/><feOffset dx="1" dy="12"/><feGaussianBlur stdDeviation="11"/><feColorMatrix values="0 0 0 0 0 0 0 0 0 0 0 0 0 0 0 0 0 0 0.09 0"/><feBlend in2="BackgroundImageFix" result="effect1_dropShadow"/><feBlend in="SourceGraphic" in2="effect1_dropShadow" result="shape"/></filter><clipPath id="clip0"><path fill="#fff" transform="translate(43.26 25)" d="M0 0h52.87v66.876H0z"/></clipPath><filter id="filter0_d" x="0" y="0" width="140" height="168" filterUnits="userSpaceOnUse" color-interpolation-filters="sRGB"><feFlood flood-opacity="0" result="BackgroundImageFix"/><feColorMatrix in="SourceAlpha" values="0 0 0 0 0 0 0 0 0 0 0 0 0 0 0 0 0 0 127 0"/><feOffset dx="1" dy="12"/><feGaussianBlur stdDeviation="11"/><feColorMatrix values="0 0 0 0 0 0 0 0 0 0 0 0 0 0 0 0 0 0 0.09 0"/><feBlend in2="BackgroundImageFix" result="effect1_dropShadow"/><feBlend in="SourceGraphic" in2="effect1_dropShadow" result="shape"/></filter><filter id="filter0_d" x="0" y="0" width="113" height="133" filterUnits="userSpaceOnUse" color-interpolation-filters="sRGB"><feFlood flood-opacity="0" result="BackgroundImageFix"/><feColorMatrix in="SourceAlpha" values="0 0 0 0 0 0 0 0 0 0 0 0 0 0 0 0 0 0 127 0"/><feOffset dx="1" dy="12"/><feGaussianBlur stdDeviation="11"/><feColorMatrix values="0 0 0 0 0 0 0 0 0 0 0 0 0 0 0 0 0 0 0.09 0"/><feBlend in2="BackgroundImageFix" result="effect1_dropShadow"/><feBlend in="SourceGraphic" in2="effect1_dropShadow" result="shape"/></filter><clipPath id="clip0"><path fill="#fff" transform="translate(.614 .439)" d="M0 0h33.772v26.053H0z"/></clipPath><filter id="filter0_d" x="0" y="0" width="113" height="133" filterUnits="userSpaceOnUse" color-interpolation-filters="sRGB"><feFlood flood-opacity="0" result="BackgroundImageFix"/><feColorMatrix in="SourceAlpha" values="0 0 0 0 0 0 0 0 0 0 0 0 0 0 0 0 0 0 127 0"/><feOffset dx="1" dy="12"/><feGaussianBlur stdDeviation="11"/><feColorMatrix values="0 0 0 0 0 0 0 0 0 0 0 0 0 0 0 0 0 0 0.09 0"/><feBlend in2="BackgroundImageFix" result="effect1_dropShadow"/><feBlend in="SourceGraphic" in2="effect1_dropShadow" result="shape"/></filter></defs><symbol id="alligator" viewBox="0 0 28 35"><path d="M27.946 12.146c0-2.825-1.704-5.872-4.677-8.361C20.448 1.422 16.983.012 14 .012 8.04.012.055 6.012.055 12.146c0 1.935 2.578 5.652 3.126 6.42 1.26 1.923 2.954 5.304 2.613 6.488-.965 3.339-.967 5.887-.01 7.573.783 1.377 1.912 1.642 2.038 1.668.054.01.107.016.161.016h12.035a.81.81 0 00.148-.013c.126-.024 1.258-.27 2.047-1.633.97-1.676.968-4.237-.005-7.61-.345-1.195 1.317-4.509 2.613-6.49.548-.769 3.126-4.485 3.126-6.419zm-4.515 5.373c-.601.915-3.562 5.609-2.853 8.064 1.01 3.5.672 5.24.212 6.084-.322.588-.734.784-.883.837H8.096c-.135-.052-.533-.247-.853-.809-.48-.845-.838-2.59.179-6.112.709-2.455-2.252-7.149-2.853-8.064l-.02-.03c-1.16-1.621-2.791-4.35-2.791-5.343C1.758 7.16 8.943 1.818 14 1.818c5.606 0 12.242 5.598 12.242 10.328 0 .991-1.632 3.72-2.791 5.343l-.02.03z" fill="#0F0049"/><path d="M12.876 28.157h-1.704V30.6h1.704v-2.443zm3.952 0h-1.705V30.6h1.705v-2.443zm-.852-9.194h-3.952v1.807h3.952v-1.807zm0 3.665h-3.952v1.807h3.952v-1.806zM5.254 12.74l3.373 3.576 1.205-1.277-3.373-3.576-1.205 1.277zm12.915 2.298l1.205 1.278 3.373-3.576-1.204-1.277-3.374 3.575zm-.299-6.156h-7.74v1.806h7.74V8.883zm0-3.612h-7.74v1.806h7.74V5.269z" fill="#0F0049"/></symbol><symbol id="alligator_marker" viewBox="0 0 113 133"><g filter="url(#filter0_d)"><path d="M90 44.611C90 63.726 55.5 99 55.5 99S21 63.726 21 44.611C21 25.496 36.446 10 55.5 10 74.554 10 90 25.496 90 44.611z" fill="#FCFCFC"/></g><path d="M75.923 37.31c0-3.793-2.435-7.885-6.681-11.227-4.03-3.173-8.981-5.067-13.242-5.067-8.515 0-19.923 8.056-19.923 16.295 0 2.598 3.683 7.589 4.466 8.62 1.799 2.583 4.22 7.123 3.732 8.714-1.377 4.482-1.381 7.904-.012 10.169 1.117 1.85 2.73 2.205 2.91 2.24.076.014.153.021.23.021h17.193c.071 0 .142-.006.21-.018.181-.032 1.798-.362 2.925-2.192 1.386-2.252 1.383-5.69-.007-10.22-.492-1.605 1.882-6.054 3.733-8.716.783-1.031 4.466-6.021 4.466-8.618zm-6.45 7.215c-.859 1.23-5.088 7.532-4.076 10.829 1.442 4.7.96 7.037.302 8.17-.459.79-1.048 1.053-1.26 1.125H47.564c-.192-.07-.76-.332-1.217-1.087-.685-1.134-1.198-3.479.255-8.208 1.012-3.297-3.218-9.6-4.076-10.829l-.029-.04c-1.656-2.177-3.987-5.842-3.987-7.174 0-6.697 10.264-13.87 17.488-13.87 8.01 0 17.489 7.518 17.489 13.87 0 1.33-2.332 4.995-3.987 7.174l-.029.04z" fill="#080029"/><path d="M54.395 58.81H51.96v3.281h2.435v-3.28zm5.645 0h-2.435v3.281h2.434v-3.28zm-1.218-12.345h-5.645v2.426h5.645v-2.426zm0 4.922h-5.645v2.425h5.645v-2.425zM43.506 38.108l4.819 4.802 1.721-1.716-4.819-4.801-1.721 1.715zm18.45 3.086l1.72 1.715 4.82-4.8-1.72-1.716-4.82 4.8zm-.428-8.267H50.471v2.426h11.057v-2.426zm0-4.851H50.471V30.5h11.057v-2.425z" fill="#080029"/></symbol><symbol id="arrow-left" viewBox="0 0 29 16"><path d="M.293 8.707a1 1 0 010-1.414L6.657.929A1 1 0 118.07 2.343L2.414 8l5.657 5.657a1 1 0 11-1.414 1.414L.293 8.707zM29 9H1V7h28v2z" fill="currentColor"/></symbol><symbol id="arrow-right" viewBox="0 0 29 16"><path d="M28.707 8.707a1 1 0 000-1.414L22.343.929a1 1 0 10-1.414 1.414L26.586 8l-5.657 5.657a1 1 0 001.414 1.414l6.364-6.364zM0 9h28V7H0v2z" fill="currentColor"/></symbol><symbol id="arrow-up" viewBox="0 0 16 19"><path d="M8.707.293a1 1 0 00-1.414 0L.929 6.657A1 1 0 002.343 8.07L8 2.414l5.657 5.657a1 1 0 101.414-1.414L8.707.293zM9 19V1H7v18h2z" fill="#0F0049"/></symbol><symbol id="caret" viewBox="0 0 13 10"><path d="M5.702 8.943a1 1 0 001.596 0l5.353-7.09A1 1 0 0011.853.25H1.147a1 1 0 00-.798 1.603l5.353 7.09z" fill="#080029"/></symbol><symbol id="eagle" viewBox="0 0 26 33"><path d="M25.796 28.736L23.9 11.3C23.87 5.08 18.998.027 13.013.027 7.03.027 2.157 5.08 2.127 11.301L.231 28.735c-.032.292.062.584.257.796a.926.926 0 00.751.304c.02-.002 1.96-.136 3.706-.136 1.232 0 1.844.066 2.14.122 1.486.278 4.386 2.237 5.378 2.968a.925.925 0 001.1-.001c.962-.711 3.776-2.621 5.232-2.915.335-.067 1.044-.147 2.52-.147 1.698 0 3.462.108 3.48.11a.947.947 0 00.746-.308c.193-.212.287-.502.255-.793zm-4.48-.989c-1.325 0-2.267.06-2.882.184-1.706.343-4.277 2.045-5.422 2.85-1.173-.821-3.84-2.58-5.59-2.908-.55-.103-1.36-.153-2.477-.153-.963 0-1.961.038-2.698.075l1.776-16.326c.004-.037.006-.074.006-.111 0-5.156 4.03-9.35 8.984-9.35s8.984 4.194 8.984 9.35c0 .037.002.074.006.111l1.777 16.334a60.471 60.471 0 00-2.465-.056z" fill="#0F0049"/><path d="M7.306 12.58c.941 0 1.704-.794 1.704-1.774s-.763-1.773-1.704-1.773-1.704.794-1.704 1.774.763 1.773 1.704 1.773zm11.414 0c.942 0 1.705-.794 1.705-1.774s-.763-1.773-1.704-1.773c-.942 0-1.705.794-1.705 1.774s.763 1.773 1.705 1.773zm-5.707 12.224l4.245-11.441h-8.49l4.245 11.44zm0-5.496l-1.47-3.965h2.942l-1.472 3.965z" fill="#0F0049"/></symbol><symbol id="eagle_marker" viewBox="0 0 140 168"><g filter="url(#filter0_d)"><path d="M117 58.222C117 84.855 69 134 69 134S21 84.855 21 58.222C21 31.59 42.49 10 69 10s48 21.59 48 48.222z" fill="#FCFCFC"/><path d="M116 58.222c0 6.402-2.9 14.286-7.38 22.602-4.465 8.287-10.43 16.88-16.413 24.665-5.98 7.782-11.963 14.738-16.452 19.749a335.883 335.883 0 01-5.421 5.913c-.548.583-.997 1.056-1.334 1.408-.337-.352-.786-.825-1.334-1.408a335.555 335.555 0 01-5.421-5.913c-4.489-5.011-10.472-11.967-16.452-19.749-5.983-7.786-11.948-16.378-16.413-24.665C24.9 72.508 22 64.624 22 58.222 22 32.138 43.047 11 69 11s47 21.138 47 47.222z" stroke="#609FFF" stroke-width="2"/></g><g clip-path="url(#clip0)" fill="#0F0049"><path d="M95.716 83.236L91.86 47.901c-.061-12.608-9.968-22.845-22.137-22.845-12.17 0-22.077 10.238-22.136 22.845L43.73 83.236a2.052 2.052 0 00.523 1.612c.397.43.958.66 1.528.616.04-.003 3.984-.274 7.536-.274 2.504 0 3.748.133 4.351.246 3.022.563 8.92 4.533 10.937 6.016.335.245.726.37 1.118.37a1.88 1.88 0 001.12-.373c1.954-1.441 7.675-5.312 10.637-5.906.681-.137 2.123-.3 5.124-.3 3.453 0 7.039.22 7.074.222a1.93 1.93 0 001.519-.623 2.052 2.052 0 00.519-1.606zm-9.112-2.005c-2.693 0-4.608.122-5.859.373-3.468.695-8.696 4.145-11.025 5.775-2.384-1.663-7.806-5.228-11.368-5.892-1.119-.209-2.766-.31-5.036-.31-1.958 0-3.988.076-5.486.15l3.611-33.084c.009-.075.013-.15.013-.225 0-10.45 8.194-18.95 18.268-18.95 10.073 0 18.268 8.5 18.268 18.95 0 .075.005.15.013.225l3.613 33.102c-1.37-.057-3.192-.114-5.012-.114z"/><path d="M58.117 50.494c1.914 0 3.466-1.609 3.466-3.594 0-1.986-1.552-3.595-3.466-3.595-1.914 0-3.465 1.61-3.465 3.595s1.551 3.594 3.465 3.594zm23.211 0c1.914 0 3.466-1.609 3.466-3.594 0-1.986-1.552-3.595-3.466-3.595-1.914 0-3.465 1.61-3.465 3.595s1.551 3.594 3.465 3.594zM69.723 75.266l8.632-23.185H61.089l8.634 23.185zm0-11.137l-2.992-8.035h5.983l-2.991 8.035z"/></g></symbol><symbol id="eye" viewBox="0 0 20 20"><path d="M18.333 10s-2.5 5-8.333 5-8.333-5-8.333-5S4.167 5 10 5s8.333 5 8.333 5z" stroke="#747474" stroke-width="1.4" stroke-linecap="round"/><circle cx="10" cy="10" r="2.5" stroke="#747474" stroke-width="1.4" stroke-linecap="round"/></symbol><symbol id="gorilla" viewBox="0 0 30 34"><path d="M29.889 20.58c-.123-2.144-.693-6.396-1.402-8.474C26.959 7.62 22.401.03 15.011.03 7.623.03 3.064 7.62 1.536 12.106c-.71 2.08-1.279 6.33-1.402 8.474-.186 3.257 1.037 6.434 3.444 8.948a14.485 14.485 0 0010.414 4.443h2.04c3.914 0 7.71-1.62 10.413-4.443 2.407-2.514 3.63-5.691 3.444-8.948zm-4.655 7.818c-2.356 2.459-5.796 3.927-9.203 3.927h-2.039c-3.408 0-6.848-1.468-9.203-3.928-2.089-2.181-3.15-4.924-2.99-7.725.12-2.096.679-6.17 1.317-8.042C4.407 8.84 8.555 1.675 15.012 1.675c6.457 0 10.605 7.166 11.895 10.955.638 1.87 1.198 5.944 1.318 8.042.16 2.8-.902 5.544-2.991 7.726z" fill="#0F0049"/><path d="M19.471 10.114c-1.642 0-3.2.545-4.46 1.55a7.118 7.118 0 00-4.46-1.55c-3.925 0-7.12 3.152-7.12 7.027 0 2.577 1.398 4.89 3.63 6.123a3.915 3.915 0 00-.35 1.602c0 3.09 3.645 5.51 8.3 5.51 4.655 0 8.301-2.42 8.301-5.51 0-.543-.12-1.085-.35-1.602a6.97 6.97 0 003.628-6.122c0-3.876-3.193-7.028-7.119-7.028zm2.014 12.026l-.995.391.63.856c.349.475.526.972.526 1.479 0 2.095-3.038 3.865-6.634 3.865-3.597 0-6.635-1.77-6.635-3.866 0-.505.177-1.002.527-1.478l.63-.856-.996-.391c-2.09-.821-3.439-2.783-3.439-4.998 0-2.968 2.446-5.383 5.453-5.383a5.45 5.45 0 013.869 1.59l.591.589.592-.588a5.45 5.45 0 013.868-1.591c3.007 0 5.453 2.415 5.453 5.383 0 2.215-1.35 4.177-3.44 4.998z" fill="#0F0049"/><path d="M10.011 17.953c.825 0 1.493-.66 1.493-1.474s-.668-1.474-1.493-1.474c-.824 0-1.493.66-1.493 1.474s.669 1.474 1.493 1.474zm10.001 0c.824 0 1.493-.66 1.493-1.474s-.669-1.474-1.493-1.474c-.825 0-1.493.66-1.493 1.474s.668 1.474 1.493 1.474zm-5.622 2.955h-1.667v2.218h1.666v-2.218zm2.91 0h-1.667v2.218H17.3v-2.218z" fill="#0F0049"/></symbol><symbol id="gorilla_marker" viewBox="0 0 113 133"><g filter="url(#filter0_d)"><path d="M90 44.611C90 63.726 55.5 99 55.5 99S21 63.726 21 44.611C21 25.496 36.446 10 55.5 10 74.554 10 90 25.496 90 44.611z" fill="#FCFCFC"/></g><path d="M75.851 49.843c-.164-2.9-.924-8.653-1.868-11.465-2.038-6.068-8.115-16.338-17.968-16.338-9.852 0-15.93 10.27-17.967 16.338-.946 2.815-1.706 8.566-1.869 11.465-.248 4.406 1.382 8.705 4.591 12.106 3.605 3.82 8.666 6.011 13.886 6.011h2.719c5.219 0 10.28-2.19 13.885-6.01 3.209-3.402 4.84-7.7 4.591-12.107zM69.645 60.42c-3.14 3.328-7.727 5.314-12.27 5.314h-2.72c-4.543 0-9.13-1.986-12.27-5.314-2.785-2.951-4.2-6.663-3.987-10.452.16-2.836.906-8.349 1.756-10.88 1.722-5.127 7.253-14.823 15.861-14.823 8.61 0 14.14 9.696 15.862 14.822.85 2.53 1.596 8.043 1.756 10.881.213 3.789-1.203 7.5-3.988 10.452z" fill="#080029"/><path d="M61.961 35.683c-2.19 0-4.265.738-5.946 2.097a9.404 9.404 0 00-5.947-2.097c-5.234 0-9.493 4.266-9.493 9.508a9.453 9.453 0 004.84 8.284 5.363 5.363 0 00-.468 2.166c0 4.181 4.861 7.456 11.068 7.456s11.068-3.275 11.068-7.456c0-.734-.16-1.467-.468-2.166a9.453 9.453 0 004.839-8.284c0-5.242-4.258-9.508-9.493-9.508zm2.686 16.27l-1.328.53.84 1.159c.466.642.702 1.315.702 2 0 2.834-4.051 5.23-8.846 5.23-4.794 0-8.846-2.395-8.846-5.23 0-.685.237-1.358.703-2l.84-1.159-1.328-.53a7.245 7.245 0 01-4.585-6.762c0-4.015 3.261-7.282 7.27-7.282 1.95 0 3.783.764 5.159 2.152l.788.796.789-.796a7.214 7.214 0 015.157-2.152c4.01 0 7.271 3.267 7.271 7.282a7.248 7.248 0 01-4.586 6.763z" fill="#080029"/><path d="M49.348 46.29c1.1 0 1.99-.893 1.99-1.995a1.992 1.992 0 00-1.99-1.994c-1.1 0-1.99.893-1.99 1.994a1.99 1.99 0 001.99 1.994zm13.334 0c1.1 0 1.99-.893 1.99-1.995a1.992 1.992 0 00-1.99-1.994c-1.1 0-1.99.893-1.99 1.994a1.99 1.99 0 001.99 1.994zm-7.496 3.998h-2.222v3h2.222v-3zm3.881 0h-2.223v3h2.223v-3z" fill="#080029"/></symbol><symbol id="panda" viewBox="0 0 35 27"><g clip-path="url(#clip0)" fill="#0F0049"><path d="M33.088 2.204a4.514 4.514 0 00-3.19-1.31c-1.226 0-2.374.48-3.234 1.353l-.972.986C23.199 1.593 20.42.73 17.614.73c-2.807 0-5.585.863-8.077 2.503l-.973-.986A4.508 4.508 0 005.33.894a4.513 4.513 0 00-3.19 1.31 4.554 4.554 0 00-.043 6.429l1.435 1.455c-.897 1.874-1.368 3.81-1.368 5.637 0 6.47 5.92 10.488 15.45 10.488s15.45-4.019 15.45-10.488c0-1.826-.471-3.762-1.368-5.637l1.435-1.455a4.555 4.555 0 00-.043-6.43zm-1.16 5.242l-1.86 1.887a.845.845 0 00-.145.988c.95 1.802 1.453 3.67 1.453 5.403 0 6.488-7.11 8.8-13.762 8.8-6.653 0-13.763-2.312-13.763-8.8 0-1.733.503-3.601 1.454-5.403a.846.846 0 00-.146-.988L3.3 7.446a2.862 2.862 0 01.027-4.04 2.837 2.837 0 012.004-.823c.77 0 1.492.302 2.032.85l1.47 1.491a.844.844 0 001.094.092c2.353-1.699 5.011-2.596 7.688-2.596 2.676 0 5.335.897 7.688 2.596a.844.844 0 001.094-.092l1.47-1.49a2.833 2.833 0 012.032-.85 2.84 2.84 0 012.005.822 2.862 2.862 0 01.026 4.04z"/><path d="M6.9 11.795c-1.621 1.622-1.933 3.94-.697 5.176 1.236 1.238 3.552.926 5.173-.697 1.62-1.621 1.933-3.939.697-5.176-1.237-1.237-3.553-.925-5.173.697zm1.992 3.823a1.513 1.513 0 110-3.025 1.513 1.513 0 010 3.025zm14.263-4.52c-1.236 1.237-.924 3.555.697 5.176 1.62 1.623 3.936 1.935 5.172.697 1.237-1.236.925-3.554-.696-5.176-1.62-1.622-3.937-1.934-5.173-.697zm3.181 4.52a1.513 1.513 0 11.001-3.025 1.513 1.513 0 010 3.025zm-7.14 1.874a.844.844 0 00-.175-1.67h-2.814a.844.844 0 00-.175 1.67l-1.369 1.37a.845.845 0 001.194 1.195l1.757-1.759 1.757 1.759a.841.841 0 001.194 0 .845.845 0 000-1.194l-1.37-1.37z"/></g></symbol><symbol id="panda_marker" viewBox="0 0 113 133"><g filter="url(#filter0_d)"><path d="M90 44.611C90 63.726 55.5 99 55.5 99S21 63.726 21 44.611C21 25.496 36.446 10 55.5 10 74.554 10 90 25.496 90 44.611z" fill="#FCFCFC"/></g><path d="M76.025 29.376c-1.107-1.137-2.573-1.763-4.129-1.763-1.585 0-3.07.647-4.184 1.822l-1.259 1.327c-3.226-2.208-6.82-3.37-10.453-3.37-3.633 0-7.227 1.162-10.453 3.37l-1.259-1.328c-1.113-1.174-2.6-1.82-4.184-1.82a5.725 5.725 0 00-4.129 1.763c-2.307 2.37-2.331 6.252-.055 8.654l1.857 1.96c-1.161 2.521-1.771 5.129-1.771 7.586 0 8.71 7.661 14.12 19.995 14.12 12.333 0 19.994-5.41 19.994-14.12 0-2.457-.61-5.064-1.772-7.587l1.858-1.96c2.276-2.401 2.25-6.283-.056-8.654zm-1.5 7.057l-2.408 2.54c-.335.354-.41.892-.188 1.33 1.23 2.426 1.88 4.941 1.88 7.274 0 8.733-9.2 11.845-17.81 11.845S38.19 56.31 38.19 47.577c0-2.333.65-4.849 1.881-7.274a1.173 1.173 0 00-.188-1.33l-2.408-2.54c-1.43-1.51-1.414-3.949.035-5.438a3.6 3.6 0 012.594-1.108 3.6 3.6 0 012.63 1.145l1.902 2.006c.378.4.98.451 1.416.124 3.045-2.287 6.485-3.495 9.95-3.495 3.463 0 6.903 1.208 9.948 3.495a1.061 1.061 0 001.416-.124l1.902-2.006a3.597 3.597 0 012.63-1.145 3.6 3.6 0 012.594 1.108c1.45 1.49 1.464 3.929.034 5.438z" fill="#080029"/><path d="M42.135 42.287c-2.098 2.184-2.501 5.304-.901 6.969 1.6 1.666 4.596 1.245 6.694-.938 2.097-2.184 2.5-5.304.9-6.97-1.6-1.664-4.596-1.244-6.693.939zm2.578 5.147c-1.081 0-1.958-.912-1.958-2.037s.877-2.037 1.958-2.037c1.08 0 1.957.912 1.957 2.037s-.876 2.037-1.957 2.037zm18.458-6.085c-1.6 1.665-1.196 4.785.901 6.969 2.097 2.183 5.095 2.603 6.694.938 1.6-1.665 1.197-4.785-.9-6.969-2.098-2.183-5.096-2.603-6.695-.938zm4.116 6.085c-1.08 0-1.957-.911-1.957-2.037 0-1.125.876-2.037 1.957-2.037s1.957.912 1.957 2.037c0 1.126-.876 2.037-1.957 2.037zm-9.24 2.523c.495-.109.866-.565.866-1.112 0-.628-.489-1.137-1.092-1.137H54.18c-.604 0-1.093.509-1.093 1.137 0 .547.372 1.003.866 1.112l-1.772 1.845a1.17 1.17 0 000 1.608 1.065 1.065 0 001.545-.001L56 51.043l2.274 2.367a1.064 1.064 0 001.545 0 1.17 1.17 0 000-1.607l-1.772-1.845z" fill="#080029"/></symbol><symbol id="profile_icon" viewBox="0 0 26 33"><circle cx="13" cy="8" r="7" stroke="#FCFCFC" stroke-width="2"/><path fill-rule="evenodd" clip-rule="evenodd" d="M24.956 33c-.537 0-.956-.462-.956-1 0-6.075-4.925-11-11-11S2 25.925 2 32c0 .538-.419 1-.956 1H.958c-.519 0-.955-.4-.958-.92V32c0-7.18 5.82-13 13-13s13 5.82 13 13v.08c-.003.52-.439.92-.958.92h-.086z" fill="#FCFCFC"/></symbol><symbol id="slider-arrow-down" viewBox="0 0 16 9"><path d="M8.707 8.707a1 1 0 01-1.414 0L.929 2.343A1 1 0 012.343.93L8 6.586 13.657.929a1 1 0 111.414 1.414L8.707 8.707zM9 7v1H7V7h2z" fill="#AEAEAE"/></symbol><symbol id="slider-arrow-up" viewBox="0 0 16 9"><path d="M8.707.293a1 1 0 00-1.414 0L.929 6.657A1 1 0 002.343 8.07L8 2.414l5.657 5.657a1 1 0 101.414-1.414L8.707.293zM9 2V1H7v1h2z" fill="#AEAEAE"/></symbol><symbol id="social-facebook" viewBox="0 0 13 24"><path d="M8.25 17.953c0 1.884-.005 3.764.005 5.649 0 .206-.057.262-.263.257a427.56 427.56 0 00-4.805 0c-.22 0-.29-.051-.29-.28.01-3.737.005-7.468.005-11.204 0-.375.042-.328-.343-.333-.68 0-1.359-.005-2.039.005-.164 0-.21-.052-.21-.216.004-1.186.004-2.376 0-3.562 0-.164.046-.216.21-.211.713.01 1.42-.005 2.133.01.192.004.253-.048.253-.25-.01-.998 0-2-.004-3-.005-.829.121-1.63.539-2.362C3.89 1.66 4.566 1.111 5.4.755c.703-.3 1.444-.44 2.203-.483C9.108.188 10.617.258 12.122.23c.169-.005.21.056.21.215-.004 1.233-.004 2.47 0 3.703 0 .188-.07.216-.234.216-.867-.005-1.734-.005-2.601-.005-.722 0-1.242.52-1.242 1.233 0 .736.009 1.467-.005 2.203-.005.211.066.263.267.263 1.186-.01 2.377 0 3.563-.01.197 0 .262.057.239.254-.07.604-.132 1.209-.197 1.814-.061.58-.164 1.157-.258 1.734-.028.164-.08.202-.23.202-1.017-.005-2.03-.005-3.047 0-.398 0-.342-.052-.342.351.005 1.847.005 3.699.005 5.55z" fill="#080029"/></symbol><symbol id="social-instagram" viewBox="0 0 22 22"><path d="M14.52 11a3.52 3.52 0 11-7.04 0 3.52 3.52 0 017.04 0zM22 6.16v9.68A6.167 6.167 0 0115.84 22H6.16A6.167 6.167 0 010 15.84V6.16A6.167 6.167 0 016.16 0h9.68A6.167 6.167 0 0122 6.16zM16.28 11A5.28 5.28 0 1011 16.28 5.286 5.286 0 0016.28 11zm1.76-5.72a1.32 1.32 0 10-2.64 0 1.32 1.32 0 002.64 0z" fill="#080029"/></symbol><symbol id="social-twitter" viewBox="0 0 24 20"><path d="M.033 17.753c2.641.242 5.02-.435 7.186-2.09-2.265-.203-3.78-1.354-4.626-3.511.741.091 1.435.116 2.17-.087-2.44-.774-3.742-2.4-3.918-5.022.732.348 1.42.6 2.233.61C1.629 6.545.888 5.108.917 3.299A4.755 4.755 0 011.582.943C4.265 4.14 7.632 5.91 11.779 6.206c-.024-.184-.038-.329-.057-.479C11.38 3.047 13.09.61 15.702.101c1.639-.32 3.088.121 4.313 1.272.19.175.351.213.589.15a11.714 11.714 0 002.74-1.088c-.337 1.132-1.03 1.983-1.97 2.7.213-.04.432-.068.645-.112a11.252 11.252 0 001.302-.363c.213-.072.427-.155.679-.198-.123.174-.242.358-.375.527a11.175 11.175 0 01-1.886 1.892.384.384 0 00-.128.27 14.61 14.61 0 01-.746 5.017c-1.073 3.203-2.945 5.796-5.752 7.648-1.386.915-2.902 1.515-4.521 1.863-1.606.343-3.22.406-4.84.213a13.23 13.23 0 01-4.622-1.447c-.384-.198-.755-.42-1.13-.633a.363.363 0 00.033-.059z" fill="#080029"/></symbol></svg>